HIERARCHY
ROOT Hips
{
    OFFSET 0.000000 0.000000 0.000000
    CHANNELS 6 Xposition Yposition Zposition Zrotation Xrotation Yrotation
    JOINT Spine
    {
        OFFSET -0.000000 14.517291 0.000000
        CHANNELS 3 Zrotation Xrotation Yrotation
        JOINT Spine1
        {
            OFFSET -0.000000 37.558300 0.000000
            CHANNELS 3 Zrotation Xrotation Yrotation
            JOINT Neck
            {
                OFFSET -0.000000 37.404057 3.400369
                CHANNELS 3 Zrotation Xrotation Yrotation
                JOINT Head
                {
                    OFFSET -0.000000 24.785618 -3.540803
                    CHANNELS 3 Zrotation Xrotation Yrotation
                    End Site
                    {
                        OFFSET -0.000000 35.408028 0.000000
                    }
                }
            }
            JOINT LeftShoulder
            {
                OFFSET 6.992933 33.973492 -0.192664
                CHANNELS 3 Zrotation Xrotation Yrotation
                JOINT LeftArm
                {
                    OFFSET 21.527611 0.000000 0.000000
                    CHANNELS 3 Zrotation Xrotation Yrotation
                    JOINT LeftForeArm
                    {
                        OFFSET 56.353916 0.000000 0.000000
                        CHANNELS 3 Zrotation Xrotation Yrotation
                        JOINT LeftHand
                        {
                            OFFSET 47.774071 0.000000 0.000000
                            CHANNELS 3 Zrotation Xrotation Yrotation
                            End Site
                            {
                                OFFSET 26.556021 0.000000 0.000000
                            }
                        }
                    }
                }
            }
            JOINT RightShoulder
            {
                OFFSET -7.065357 33.973492 -0.192664
                CHANNELS 3 Zrotation Xrotation Yrotation
                JOINT RightArm
                {
                    OFFSET -21.527611 0.000000 0.000000
                    CHANNELS 3 Zrotation Xrotation Yrotation
                    JOINT RightForeArm
                    {
                        OFFSET -56.353916 0.000000 0.000000
                        CHANNELS 3 Zrotation Xrotation Yrotation
                        JOINT RightHand
                        {
                            OFFSET -47.774071 0.000000 0.000000
                            CHANNELS 3 Zrotation Xrotation Yrotation
                            End Site
                            {
                                OFFSET -26.556021 0.000000 0.000000
                            }
                        }
                    }
                }
            }
        }
    }
    JOINT LeftUpLeg
    {
        OFFSET 17.704014 0.000000 0.000000
        CHANNELS 3 Zrotation Xrotation Yrotation
        JOINT LeftLeg
        {
            OFFSET -0.000000 -81.181816 0.000000
            CHANNELS 3 Zrotation Xrotation Yrotation
            JOINT LeftFoot
            {
                OFFSET -0.000000 -62.821102 0.000000
                CHANNELS 3 Zrotation Xrotation Yrotation
                JOINT LeftToeBase
                {
                    OFFSET -0.000000 -11.507608 26.556021
                    CHANNELS 3 Zrotation Xrotation Yrotation
                    End Site
                    {
                        OFFSET -0.000000 0.000000 7.081605
                    }
                }
            }
        }
    }
    JOINT RightUpLeg
    {
        OFFSET -17.704014 0.000000 0.000000
        CHANNELS 3 Zrotation Xrotation Yrotation
        JOINT RightLeg
        {
            OFFSET -0.000000 -81.181816 0.000000
            CHANNELS 3 Zrotation Xrotation Yrotation
            JOINT RightFoot
            {
                OFFSET -0.000000 -62.821102 0.000000
                CHANNELS 3 Zrotation Xrotation Yrotation
                JOINT RightToeBase
                {
                    OFFSET -0.000000 -11.507608 26.556021
                    CHANNELS 3 Zrotation Xrotation Yrotation
                    End Site
                    {
                        OFFSET -0.000000 0.000000 7.081605
                    }
                }
            }
        }
    }
}
MOTION
Frames:    4
Frame Time:    0.008333
23.365257    157.094757    -30.779806    0.231730    -0.341677    -43.955322    1.510040    -0.586735    1.922502    0.373569    -0.081329    0.637664    20.290569    7.231247    18.238167    -13.796353    2.912197    15.712145    5.663122    8.643811    -16.775227    -21.942175    14.506961    -39.245872    -0.813231    -29.394825    -20.649418    -26.735308    -21.358873    -36.707096    -3.163047    5.836480    -1.871345    34.094017    7.940453    77.179222    3.817209    -10.060352    101.375313    14.506592    -11.016761    28.409180    17.934324    -18.653557    5.236091    -12.587006    21.589655    -4.924204    -6.661966    -2.558827    37.443069    0.000000    0.000000    0.000000    -13.368826    8.659561    -7.439308    3.459249    15.955645    -2.662894    7.830000    -17.383915    -15.935924    0.000000    0.000000    0.000000    
23.351297    157.091934    -30.762154    0.227922    -0.352277    -43.945126    1.513836    -0.582849    1.919179    0.376325    -0.076668    0.636549    20.287601    7.224073    18.241648    -13.796056    2.904811    15.713842    5.696289    8.721220    -16.683949    -21.861401    14.452127    -39.451073    -0.763330    -29.473429    -20.639330    -26.775581    -21.419107    -36.715305    -3.168175    5.841530    -1.878520    34.101952    7.937271    77.182198    3.822451    -10.059375    101.383560    14.499056    -11.025070    28.406612    17.925823    -18.645220    5.243027    -12.583673    21.606745    -4.913855    -6.651487    -2.568631    37.414810    0.000000    0.000000    0.000000    -13.377373    8.672251    -7.414452    3.475001    15.972299    -2.683552    7.835563    -17.390484    -15.960989    0.000000    0.000000    0.000000    
23.340614    157.090530    -30.743942    0.227295    -0.357263    -43.942303    1.520485    -0.591048    1.922417    0.386025    -0.063836    0.637586    20.281498    7.243834    18.234547    -13.818817    2.861707    15.702869    5.691121    8.706996    -16.694164    -21.856142    14.357503    -39.480495    -0.761034    -29.414806    -20.641323    -26.800863    -21.347151    -36.717808    -3.180694    5.845550    -1.889236    34.110600    7.934407    77.191177    3.810864    -10.065166    101.374100    14.511129    -11.010877    28.423197    17.922752    -18.645670    5.240010    -12.593195    21.630920    -4.909926    -6.660508    -2.597976    37.425976    0.000000    0.000000    0.000000    -13.385312    8.678972    -7.413685    3.482601    15.982324    -2.694809    7.831719    -17.390202    -15.948978    0.000000    0.000000    0.000000    
23.328773    157.089783    -30.728224    0.224267    -0.360020    -43.932434    1.534524    -0.593744    1.915739    0.378940    -0.059014    0.635276    20.275478    7.251563    18.234596    -13.811123    2.835249    15.702569    5.668349    8.601259    -16.779900    -21.888493    14.305451    -39.348560    -0.827757    -29.349594    -20.722857    -26.770267    -21.288149    -36.763100    -3.174156    5.844472    -1.882416    34.097149    7.938106    77.183922    3.806491    -10.102320    101.381920    14.517033    -11.043324    28.410896    17.924362    -18.649073    5.235439    -12.602503    21.652750    -4.907967    -6.644809    -2.599641    37.412464    0.000000    0.000000    0.000000    -13.388913    8.687684    -7.413908    3.494614    15.990736    -2.681169    7.836931    -17.391478    -15.984091    0.000000    0.000000    0.000000    
